HIERARCHY
ROOT RootJoint
{
    OFFSET   0.000000   0.000000   0.000000
    CHANNELS 6 Xposition Yposition Zposition Xrotation Yrotation Zrotation
    JOINT pelvis_lowerback
    {
        OFFSET   0.000000   0.093605   0.000000
        CHANNELS 3 Xrotation Yrotation Zrotation
        JOINT lowerback_torso
        {
            OFFSET   0.000000   0.100000   0.000000
            CHANNELS 3 Xrotation Yrotation Zrotation
            JOINT torso_head
            {
                OFFSET   0.000000   0.282350   0.000000
                CHANNELS 3 Xrotation Yrotation Zrotation
                End Site
                {
                    OFFSET   0.000000   0.192650   0.000000
                }
            }
            JOINT rTorso_Clavicle
            {
                OFFSET  -0.001000   0.157500   0.000000
                CHANNELS 3 Xrotation Yrotation Zrotation
                JOINT rShoulder
                {
                    OFFSET  -0.117647   0.000000   0.000000
                    CHANNELS 3 Xrotation Yrotation Zrotation
                    JOINT rElbow
                    {
                        OFFSET  -0.245000   0.000000   0.000000
                        CHANNELS 3 Xrotation Yrotation Zrotation
                        JOINT rWrist
                        {
                            OFFSET  -0.240000   0.000000   0.000000
                            CHANNELS 3 Xrotation Yrotation Zrotation
                            End Site
                            {
                                OFFSET  -0.116353  -0.002500   0.000000
                            }
                        }
                    }
                }
            }
            JOINT lTorso_Clavicle
            {
                OFFSET   0.001000   0.157500   0.000000
                CHANNELS 3 Xrotation Yrotation Zrotation
                JOINT lShoulder
                {
                    OFFSET   0.117647   0.000000   0.000000
                    CHANNELS 3 Xrotation Yrotation Zrotation
                    JOINT lElbow
                    {
                        OFFSET   0.245000   0.000000   0.000000
                        CHANNELS 3 Xrotation Yrotation Zrotation
                        JOINT lWrist
                        {
                            OFFSET   0.240000   0.000000   0.000000
                            CHANNELS 3 Xrotation Yrotation Zrotation
                            End Site
                            {
                                OFFSET   0.116353  -0.002500   0.000000
                            }
                        }
                    }
                }
            }
        }
    }
    JOINT rHip
    {
        OFFSET  -0.100000  -0.051395   0.000000
        CHANNELS 3 Xrotation Yrotation Zrotation
        JOINT rKnee
        {
            OFFSET   0.000000  -0.410000   0.000000
            CHANNELS 3 Xrotation Yrotation Zrotation
            JOINT rAnkle
            {
                OFFSET   0.000000  -0.390000   0.000000
                CHANNELS 3 Xrotation Yrotation Zrotation
                JOINT rToeJoint
                {
                    OFFSET   0.000000  -0.050000   0.130000
                    CHANNELS 3 Xrotation Yrotation Zrotation
                    End Site
                    {
                        OFFSET  -0.010000   0.002000   0.060000
                    }
                }
            }
        }
    }
    JOINT lHip
    {
        OFFSET   0.100000  -0.051395   0.000000
        CHANNELS 3 Xrotation Yrotation Zrotation
        JOINT lKnee
        {
            OFFSET   0.000000  -0.410000   0.000000
            CHANNELS 3 Xrotation Yrotation Zrotation
            JOINT lAnkle
            {
                OFFSET   0.000000  -0.390000   0.000000
                CHANNELS 3 Xrotation Yrotation Zrotation
                JOINT lToeJoint
                {
                    OFFSET   0.000000  -0.050000   0.130000
                    CHANNELS 3 Xrotation Yrotation Zrotation
                    End Site
                    {
                        OFFSET   0.010000   0.002000   0.060000
                    }
                }
            }
        }
    }
}
MOTION
Frames: 14
Frame Time:   0.008333
 -2.382713   0.923757   4.042340   0.456321  -2.733527   3.727164   0.637595   2.324269  -2.143989  -4.057110  -1.384057  -1.122336  -2.308244  -1.071926  -1.581417 -12.196604  -0.744821 -25.699421 -43.019807   2.307484   0.069106   0.000796  65.417720  -0.000945   1.897312   9.798931 -18.590273 -11.048586  -1.692854  29.510022 -42.389803  -2.666171  -2.425648   0.000498 -61.503944   0.001801   1.178383 -10.192127  20.649778   4.044833  -2.183737  -8.248657  -0.000000  -0.000000  -0.000000  -3.760436  -9.278318   2.421066  -0.681618   0.000011  -0.000006  -1.618489   3.453972   7.025141  15.118707  -0.000031  -0.000021   4.684025   6.643091  -3.053543 -26.489987   0.000084   0.000076
 -2.383125   0.923829   4.042505   0.408072  -2.745883   3.762724   0.663239   2.378502  -2.154561  -4.022329  -1.384317  -1.188844  -2.294445  -1.133657  -1.600932 -12.223632  -0.656699 -25.784534 -43.142872   2.263617   0.161167   0.001420  65.159157  -0.001821   1.868689   9.867970 -18.553986 -11.074878  -1.745105  29.483418 -42.586917  -2.625525  -2.528681   0.000778 -61.342052   0.002082   1.116620 -10.210073  20.658560   4.111035  -2.160007  -8.263053  -0.000000  -0.000000  -0.000000  -3.777394  -9.296206   2.422967  -0.665035   0.000005  -0.000004  -1.557839   3.453296   7.014881  15.107821  -0.000022  -0.000016   4.820238   6.629892  -3.098780 -26.685621   0.000061   0.000074
 -2.383537   0.923903   4.042640   0.362382  -2.752671   3.799012   0.689010   2.430685  -2.169220  -3.988482  -1.384373  -1.259014  -2.277875  -1.192270  -1.621820 -12.255189  -0.571508 -25.879468 -43.264393   2.222626   0.238994   0.001949  64.905203  -0.002495   1.816344   9.861552 -18.546221 -11.106494  -1.795973  29.471750 -42.777717  -2.591402  -2.616496   0.000992 -61.189762   0.002245   1.050791 -10.214434  20.704776   4.172790  -2.140015  -8.277478  -0.000000  -0.000000  -0.000000  -3.792495  -9.315575   2.423225  -0.649393   0.000001  -0.000004  -1.501345   3.450721   7.003850  15.092638  -0.000013  -0.000013   4.958463   6.614252  -3.139957 -26.877349   0.000048   0.000072
 -2.383948   0.923975   4.042747   0.319099  -2.757022   3.833001   0.713356   2.480465  -2.186266  -3.957488  -1.383525  -1.328422  -2.260937  -1.246933  -1.642135 -12.287233  -0.491268 -25.977286 -43.380351   2.187210   0.306533   0.002319  64.667223  -0.002931   1.760320   9.837576 -18.552251 -11.139224  -1.843183  29.468837 -42.958223  -2.561855  -2.693215   0.001134 -61.048108   0.002305   0.987656 -10.218313  20.764688   4.230239  -2.122172  -8.289167  -0.000000  -0.000000  -0.000000  -3.805502  -9.334642   2.423213  -0.635062  -0.000003  -0.000003  -1.449248   3.447091   6.995033  15.076798  -0.000007  -0.000010   5.092254   6.598670  -3.177204 -27.059638   0.000041   0.000070
 -2.384354   0.924044   4.042830   0.277414  -2.759996   3.864046   0.735667   2.527818  -2.204888  -3.929360  -1.381803  -1.395969  -2.244484  -1.297914  -1.661401 -12.318182  -0.415458 -26.074580 -43.489899   2.156818   0.366554   0.002548  64.445612  -0.003177   1.706403   9.813669 -18.565043 -11.171566  -1.886978  29.470925 -43.127986  -2.535687  -2.761653   0.001215 -60.916390   0.002290   0.928115 -10.224238  20.829494   4.284297  -2.105944  -8.297795  -0.000000  -0.000000  -0.000000  -3.816512  -9.352911   2.423303  -0.621924  -0.000005  -0.000002  -1.400696   3.442819   6.988891  15.061367  -0.000002  -0.000008   5.219899   6.583688  -3.211023 -27.231300   0.000039   0.000067
 -2.384752   0.924109   4.042890   0.236814  -2.762009   3.892136   0.755774   2.572772  -2.224651  -3.903905  -1.379345  -1.461347  -2.228880  -1.345473  -1.679548 -12.347417  -0.343761 -26.169391 -43.592894   2.130546   0.420753   0.002665  64.239428  -0.003280   1.655672   9.793434 -18.581233 -11.202825  -1.927650  29.475756 -43.287184  -2.512063  -2.823584   0.001248 -60.793800   0.002225   0.871925 -10.231973  20.895703   4.335519  -2.091100  -8.303632  -0.000000  -0.000000  -0.000000  -3.825611  -9.370250   2.423571  -0.609875  -0.000007  -0.000002  -1.355160   3.438100   6.985235  15.046773   0.000002  -0.000007   5.340991   6.569409  -3.241803 -27.392246   0.000039   0.000064
 -2.385139   0.924171   4.042927   0.196982  -2.763278   3.917421   0.773709   2.615378  -2.245263  -3.880914  -1.376303  -1.524455  -2.214251  -1.389844  -1.696607 -12.374759  -0.276033 -26.260590 -43.689474   2.107574   0.470202   0.002696  64.047549  -0.003281   1.608055   9.776966 -18.599077 -11.232691  -1.965402  29.481956 -43.436217  -2.490380  -2.880157   0.001245 -60.679593   0.002126   0.818697 -10.240846  20.961640   4.384224  -2.077489  -8.307060  -0.000000  -0.000000  -0.000000  -3.832849  -9.386638   2.424010  -0.598823  -0.000008  -0.000001  -1.312300   3.433057   6.983734  15.033182   0.000005  -0.000006   5.455495   6.555832  -3.269872 -27.542619   0.000039   0.000060
 -2.385484   0.924234   4.042998   0.128852  -2.742113   3.948310   0.823437   2.649699  -2.269438  -3.857156  -1.376302  -1.603642  -2.181155  -1.445107  -1.704446 -12.410906  -0.202655 -26.369557 -43.832533   2.080270   0.529530   0.003520  63.701132  -0.004199   1.582250   9.836977 -18.605802 -11.283269  -2.000341  29.499609 -43.671922  -2.489163  -2.960138   0.001393 -60.567716   0.002220   0.750095 -10.250496  20.993382   4.470152  -2.064144  -8.317703  -0.000000  -0.000000  -0.000000  -3.849858  -9.429259   2.409598  -0.546244  -0.000010  -0.000001  -1.243738   3.416714   6.975039  15.023074   0.000006  -0.000006   5.545988   6.523015  -3.300240 -27.582506   0.000030   0.000052
 -2.385789   0.924291   4.043098   0.064043  -2.720401   3.978273   0.867916   2.685063  -2.294347  -3.836226  -1.374677  -1.682091  -2.146442  -1.496917  -1.713409 -12.449793  -0.134620 -26.478775 -43.970315   2.050883   0.579566   0.004148  63.365743  -0.004861   1.535378   9.828451 -18.627616 -11.337924  -2.031958  29.523695 -43.897632  -2.489369  -3.027998   0.001494 -60.463597   0.002247   0.681602 -10.258153  21.057407   4.554232  -2.052690  -8.329737  -0.000000  -0.000000  -0.000000  -3.868606  -9.470751   2.394711  -0.497430  -0.000011  -0.000001  -1.177243   3.394180   6.966106  15.014820   0.000006  -0.000006   5.639919   6.483908  -3.325257 -27.670472   0.000020   0.000059
 -2.386054   0.924340   4.043224   0.003610  -2.699707   4.006576   0.906037   2.720138  -2.319801  -3.820285  -1.371463  -1.757230  -2.112925  -1.545188  -1.722443 -12.488482  -0.072238 -26.584328 -44.100497   2.023094   0.623231   0.004544  63.051178  -0.005252   1.484235   9.801501 -18.657022 -11.392700  -2.059336  29.550939 -44.110339  -2.489663  -3.086872   0.001549 -60.366511   0.002219   0.616187 -10.265927  21.133196   4.634893  -2.042580  -8.342529  -0.000000  -0.000000  -0.000000  -3.888469  -9.509868   2.380223  -0.452690  -0.000010  -0.000001  -1.113733   3.371754   6.956625  15.008630   0.000006  -0.000005   5.726885   6.445513  -3.349148 -27.764038   0.000011   0.000067
 -2.386281   0.924381   4.043372  -0.052932  -2.679788   4.032631   0.937993   2.754282  -2.345118  -3.809062  -1.367148  -1.828582  -2.081343  -1.590208  -1.731138 -12.525828  -0.014580 -26.685031 -44.222837   1.997354   0.662205   0.004749  62.757438  -0.005429   1.434014   9.771997 -18.690102 -11.446229  -2.083279  29.579217 -44.310048  -2.489740  -3.138964   0.001565 -60.275891   0.002154   0.553766 -10.273758  21.213291   4.712418  -2.033812  -8.355422  -0.000000  -0.000000  -0.000000  -3.909191  -9.546791   2.366309  -0.411688  -0.000009  -0.000001  -1.052936   3.350406   6.946958  15.004146   0.000006  -0.000004   5.807009   6.408948  -3.371728 -27.865768   0.000002   0.000074
 -2.386469   0.924414   4.043536  -0.106023  -2.660421   4.056190   0.964331   2.787255  -2.369955  -3.801944  -1.362078  -1.896123  -2.051884  -1.632210  -1.739370 -12.561407   0.038921 -26.780374 -44.337526   1.973534   0.697465   0.004805  62.483391  -0.005444   1.385899   9.743759 -18.724923 -11.497856  -2.104417  29.607336 -44.497212  -2.489490  -3.185666   0.001549 -60.191268   0.002062   0.494103 -10.281443  21.294758   4.787002  -2.026354  -8.368107  -0.000000  -0.000000  -0.000000  -3.930495  -9.581726   2.353043  -0.374111  -0.000007  -0.000000  -0.994675   3.330312   6.937333  15.001138   0.000005  -0.000003   5.880598   6.374416  -3.393023 -27.976666  -0.000006   0.000080
 -2.386620   0.924439   4.043712  -0.155990  -2.641512   4.077190   0.985699   2.818947  -2.394169  -3.798309  -1.356490  -1.959971  -2.024532  -1.671398  -1.747118 -12.595098   0.088622 -26.870169 -44.444903   1.951393   0.729638   0.004749  62.227748  -0.005342   1.340037   9.717476 -18.760455 -11.547281  -2.123171  29.634633 -44.672434  -2.488863  -3.227894   0.001508 -60.112219   0.001952   0.436999 -10.288836  21.376141   4.858703  -2.020114  -8.380467  -0.000000  -0.000000  -0.000000  -3.952097  -9.614824   2.340435  -0.339671  -0.000005  -0.000000  -0.938852   3.311466   6.927854  14.999396   0.000004  -0.000003   5.948001   6.341896  -3.413107 -28.096849  -0.000015   0.000083
 -2.386733   0.924453   4.043870  -0.189572  -2.617263   4.090592   0.996107   2.838647  -2.404341  -3.800098  -1.345702  -2.030558  -1.970426  -1.710552  -1.749204 -12.604578   0.126444 -26.957285 -44.581676   1.924165   0.771666   0.004975  61.883869  -0.005590   1.322684   9.751520 -18.820981 -11.593806  -2.115232  29.639712 -44.887142  -2.490851  -3.302561   0.001381 -60.062380   0.001774   0.386589 -10.306406  21.476646   4.912237  -2.015826  -8.384685  -0.000000  -0.000000  -0.000000  -3.974765  -9.649480   2.311624  -0.334892  -0.000003  -0.000000  -0.891983   3.274895   6.923598  14.986003   0.000005  -0.000001   5.971601   6.318487  -3.430596 -28.083739  -0.000010   0.000064
